<svg width="136" height="67" viewBox="0 0 136 67" fill="none" xmlns="http://www.w3.org/2000/svg">
<path d="M0.00012207 47.6921V61.5963H1.87438V49.4401H7.93571V61.5963H9.80981V47.6921H0.00012207Z" fill="#FEFEFE"/>
<path d="M13.4164 61.5963V52.3799C13.4197 51.7641 13.5261 51.2245 13.742 50.7543C13.958 50.2843 14.2704 49.9167 14.6792 49.6487C15.0846 49.3804 15.573 49.2447 16.148 49.2415C16.6098 49.2447 17.0153 49.3243 17.3575 49.483C17.6999 49.6388 17.9856 49.8539 18.2084 50.1252C18.4344 50.3968 18.6037 50.7047 18.7133 51.0522C18.8262 51.3965 18.8795 51.7608 18.8795 52.1416C18.8795 52.6614 18.7633 53.1181 18.5373 53.5154C18.3147 53.9092 17.9856 54.2204 17.5602 54.4424C17.1316 54.6674 16.6164 54.78 16.0085 54.7833H14.1343V56.5313H15.789C16.1845 56.5346 16.5899 56.5178 17.0054 56.4815C17.4174 56.4419 17.8229 56.3525 18.225 56.2168C18.6238 56.0776 19.0025 55.8625 19.3579 55.5678C19.7137 55.2733 20.0327 54.8727 20.3152 54.3662C20.4945 54.0252 20.6243 53.6708 20.7105 53.3035C20.7936 52.9327 20.8336 52.5587 20.8336 52.1812C20.8336 51.5489 20.7339 50.9529 20.5379 50.3935C20.3418 49.8306 20.0492 49.3341 19.6604 48.8973C19.2684 48.4634 18.7832 48.1224 18.2015 47.8742C17.6201 47.6258 16.9421 47.4967 16.1679 47.4935C15.4768 47.4935 14.8488 47.606 14.2837 47.8244C13.7189 48.0463 13.2336 48.3673 12.8248 48.7913C12.4161 49.2151 12.1004 49.7348 11.8778 50.3503C11.6585 50.9662 11.5454 51.668 11.5422 52.4594V61.5963H13.4164Z" fill="#FEFEFE"/>
<path d="M22.2238 54.6443C22.2271 55.442 22.3534 56.1968 22.6058 56.9119C22.8552 57.627 23.2073 58.2824 23.6594 58.8784C24.1113 59.4711 24.6397 59.9875 25.2478 60.4212C25.8558 60.8581 26.5172 61.1957 27.2351 61.434C27.9493 61.6726 28.7005 61.7917 29.4814 61.795C30.2622 61.7917 31.0134 61.6726 31.731 61.434C32.4455 61.1957 33.1103 60.8581 33.7149 60.4212C34.3231 59.9875 34.8515 59.4711 35.3033 58.8784C35.7554 58.2824 36.1076 57.627 36.3569 56.9119C36.6094 56.1968 36.7356 55.442 36.739 54.6443C36.7356 53.8464 36.6094 53.0883 36.3569 52.3732C36.1076 51.6581 35.7554 51.006 35.3033 50.41C34.8515 49.8173 34.3231 49.3009 33.7149 48.8673C33.1103 48.4303 32.4455 48.0927 31.731 47.8544C31.0134 47.6159 30.2622 47.4967 29.4814 47.4935C28.7005 47.4967 27.9493 47.6159 27.2351 47.8544C26.5172 48.0927 25.8558 48.4303 25.2478 48.8673C24.6397 49.3009 24.1113 49.8173 23.6594 50.41C23.2073 51.006 22.8552 51.6581 22.6058 52.3732C22.3534 53.0883 22.2271 53.8464 22.2238 54.6443ZM24.1776 54.6443C24.1809 53.9092 24.3174 53.2174 24.5798 52.5686C24.8457 51.9195 25.2145 51.347 25.6931 50.847C26.1715 50.3503 26.7299 49.9598 27.3746 49.6751C28.0159 49.3903 28.7204 49.2447 29.4814 49.2415C30.2423 49.2447 30.9469 49.3903 31.5882 49.6751C32.2329 49.9598 32.7913 50.3503 33.2697 50.847C33.7483 51.347 34.1171 51.9195 34.383 52.5686C34.6487 53.2174 34.7818 53.9092 34.7851 54.6443C34.7818 55.3793 34.6487 56.0711 34.383 56.7198C34.1171 57.3689 33.7483 57.9415 33.2697 58.4414C32.7913 58.9381 32.2329 59.3285 31.5882 59.6133C30.9469 59.8981 30.2423 60.0404 29.4814 60.047C28.7204 60.0404 28.0159 59.8981 27.3746 59.6133C26.7299 59.3285 26.1715 58.9381 25.6931 58.4414C25.2145 57.9415 24.8457 57.3689 24.5798 56.7198C24.3174 56.0711 24.1809 55.3793 24.1776 54.6443Z" fill="#FEFEFE"/>
<path d="M45.39 46.5202V59.0339H45.2705C44.5026 59.0305 43.8182 58.9048 43.2167 58.6632C42.6185 58.4181 42.1102 58.087 41.6982 57.6633C41.2827 57.2396 40.967 56.7597 40.7511 56.2166C40.5351 55.677 40.4252 55.1044 40.4252 54.5051C40.4252 53.9589 40.5216 53.4293 40.7143 52.9161C40.9038 52.4029 41.183 51.9361 41.5451 51.5189C41.9108 51.1018 42.3561 50.7642 42.881 50.506C43.4061 50.2444 44.0043 50.0956 44.6722 50.0556V48.1887C43.8614 48.2283 43.1302 48.3772 42.4723 48.6323C41.8177 48.8871 41.2394 49.2247 40.7409 49.6418C40.2426 50.059 39.8239 50.5358 39.4883 51.0621C39.1525 51.5918 38.9 52.1479 38.7271 52.7372C38.5578 53.3234 38.4713 53.9125 38.4713 54.5051C38.4747 55.2103 38.581 55.8822 38.7904 56.5146C39.003 57.1469 39.3055 57.7263 39.6976 58.2527C40.0896 58.7824 40.5616 59.2358 41.1098 59.6232C41.6614 60.0106 42.2763 60.3086 42.9543 60.5205C43.6354 60.7323 44.3664 60.8383 45.1506 60.8415H45.39V62.5696H47.2643V49.9961H47.364C48.125 49.9995 48.8027 50.1252 49.4042 50.3669C50.0025 50.612 50.5143 50.943 50.933 51.3667C51.355 51.7872 51.674 52.2706 51.8966 52.8102C52.1159 53.353 52.2289 53.9224 52.2289 54.5249C52.2289 55.0777 52.1292 55.6109 51.9364 56.1239C51.7403 56.6403 51.458 57.1072 51.089 57.5243C50.7203 57.9415 50.2749 58.2791 49.7465 58.5375C49.2214 58.7923 48.6268 58.9379 47.962 58.9744V60.8415C48.7828 60.8017 49.5238 60.6528 50.1851 60.3978C50.8465 60.143 51.428 59.8054 51.9265 59.3882C52.425 58.9678 52.8404 58.4942 53.176 57.9679C53.5116 57.4382 53.7609 56.8788 53.9303 56.2928C54.0998 55.7067 54.183 55.1176 54.183 54.5249C54.183 53.8197 54.0766 53.1478 53.8706 52.5155C53.6646 51.8832 53.3688 51.3005 52.9765 50.7741C52.5877 50.2477 52.1193 49.7909 51.5677 49.4069C51.0192 49.0196 50.3977 48.7217 49.71 48.5098C49.0187 48.298 48.271 48.192 47.4637 48.1887H47.2643V46.5202H45.39Z" fill="#FEFEFE"/>
<path d="M55.9163 47.5928V59.5305C55.9097 59.9278 55.9428 60.2886 56.0094 60.6132C56.076 60.9376 56.2088 61.199 56.4082 61.3944C56.611 61.5897 56.9134 61.6891 57.312 61.6956C57.6477 61.6924 57.9301 61.6096 58.1659 61.4475C58.3988 61.2852 58.6014 61.0634 58.7774 60.7852C58.9536 60.5106 59.1232 60.1961 59.2859 59.8483L63.3733 51.2872C63.4032 51.2245 63.4432 51.1384 63.4929 51.0291C63.5429 50.9199 63.5959 50.8073 63.6559 50.6915C63.7155 50.5757 63.7754 50.4796 63.8351 50.4001C63.8984 50.3206 63.9549 50.2776 64.0113 50.2744C64.0779 50.2776 64.121 50.3008 64.1409 50.347C64.1643 50.3902 64.1743 50.443 64.1743 50.4994C64.1743 50.5589 64.1743 50.6087 64.1709 50.6516V61.497H66.0452V49.5593C66.0485 49.1619 66.0152 48.8012 65.9389 48.4765C65.8657 48.1521 65.726 47.8908 65.5201 47.6954C65.3141 47.5 65.0183 47.3974 64.6294 47.394C64.3336 47.394 64.0712 47.4604 63.842 47.596C63.6125 47.7284 63.3998 47.9337 63.2037 48.2052C63.0079 48.4799 62.8118 48.8243 62.6157 49.2415L58.5283 57.8421C58.3786 58.1633 58.2591 58.4115 58.1626 58.587C58.0665 58.7626 57.99 58.852 57.9301 58.8553C57.8704 58.852 57.8303 58.8321 57.8104 58.789C57.7873 58.7461 57.774 58.6962 57.7707 58.6368C57.7707 58.5804 57.7707 58.5276 57.7707 58.4778L57.7906 47.5928H55.9163Z" fill="#FEFEFE"/>
<path d="M67.7781 49.4401H71.2474V61.5963H73.1217V49.4401H76.5909V47.6921H67.7781V49.4401Z" fill="#FEFEFE"/>
<path d="M78.8794 65.9267V57.6041C78.8827 56.9352 78.9493 56.3626 79.0821 55.8924C79.2152 55.4191 79.3978 55.0284 79.6237 54.7205C79.8499 54.4126 80.1024 54.171 80.3882 53.9988C80.6705 53.8235 80.963 53.7043 81.2654 53.6314C81.5679 53.5618 81.8637 53.5288 82.1492 53.5321C82.6014 53.5321 83.0234 53.6149 83.4189 53.7737C83.8109 53.9361 84.1566 54.1645 84.4588 54.4624C84.7579 54.7604 84.9907 55.1179 85.1601 55.535C85.3296 55.9521 85.4161 56.4155 85.4194 56.9286C85.4161 57.5609 85.273 58.1173 84.994 58.5972C84.7148 59.0739 84.3227 59.4479 83.8175 59.7161C83.3158 59.9844 82.7242 60.1234 82.0498 60.1267C81.7839 60.13 81.5179 60.0969 81.2488 60.0307C80.9829 59.9644 80.7105 59.8519 80.4379 59.6931C80.1623 59.5373 79.8831 59.3222 79.5972 59.0541V60.8815C79.8397 61.0867 80.1056 61.2557 80.4014 61.3913C80.694 61.527 80.9997 61.6296 81.3187 61.6959C81.6377 61.7622 81.9534 61.7952 82.2691 61.7952C82.7707 61.7952 83.2625 61.7256 83.7412 61.59C84.2196 61.451 84.6681 61.249 85.0869 60.9841C85.5055 60.716 85.8712 60.3881 86.1902 59.9976C86.5093 59.6069 86.7584 59.1601 86.9379 58.6536C87.1174 58.147 87.2105 57.5842 87.2138 56.9685C87.2105 56.3428 87.1207 55.7667 86.9413 55.2403C86.7617 54.7139 86.5125 54.2406 86.1936 53.8235C85.8745 53.4064 85.4989 53.0553 85.0736 52.7607C84.6483 52.4695 84.1831 52.2477 83.6846 52.0953C83.1861 51.9432 82.6677 51.8636 82.1293 51.8636C81.6874 51.8603 81.2323 51.9132 80.7669 52.0191C80.3017 52.1251 79.8532 52.3039 79.421 52.5521C78.989 52.8038 78.6003 53.1415 78.2546 53.5718C77.9091 53.9988 77.6365 54.5318 77.434 55.1742C77.2346 55.8131 77.1283 56.5778 77.1249 57.4649V65.9267H78.8794Z" fill="#FEFEFE"/>
<path d="M98.1424 54.8826C97.8268 54.2005 97.4246 53.6378 96.943 53.191C96.461 52.7439 95.926 52.4095 95.3412 52.191C94.7564 51.9726 94.1481 51.8634 93.5167 51.8634C92.8091 51.8667 92.1576 51.9924 91.5563 52.2442C90.9548 52.4923 90.4297 52.8399 89.9811 53.287C89.5323 53.7372 89.1835 54.2602 88.9344 54.8628C88.6817 55.4651 88.5555 56.1208 88.5521 56.8291C88.5555 57.5211 88.6717 58.15 88.901 58.7229C89.1302 59.2955 89.4493 59.7987 89.858 60.2324C90.2668 60.6627 90.7421 61.0103 91.2838 61.2785C91.6326 61.4475 91.9949 61.5765 92.3703 61.6626C92.7459 61.7518 93.1281 61.795 93.5167 61.795C93.9689 61.795 94.4108 61.7452 94.8494 61.6393C95.2847 61.5366 95.6968 61.3778 96.0889 61.1593C96.2784 61.0568 96.4977 60.9076 96.7502 60.7125C96.9993 60.5171 97.2487 60.2654 97.4978 59.9641C97.7472 59.6596 97.9599 59.2922 98.1458 58.8619C98.3287 58.4348 98.4449 57.9349 98.5015 57.3656L96.727 57.1469C96.7104 57.5277 96.6405 57.8785 96.5143 58.2098C96.3881 58.5375 96.2185 58.8288 96.0091 59.0836C95.7998 59.3417 95.5606 59.547 95.2913 59.7093C95.0189 59.8648 94.7298 59.974 94.4207 60.037C94.1116 60.1 93.7993 60.1298 93.477 60.1264C93.1745 60.1264 92.8821 60.0869 92.5929 60.0106C92.304 59.9311 92.0347 59.8185 91.7822 59.6697C91.5129 59.5041 91.2705 59.2856 91.0545 59.0174C90.8385 58.7493 90.6689 58.4315 90.5427 58.0639C90.4131 57.6999 90.3499 57.2861 90.3466 56.8291C90.3466 56.3558 90.4231 55.9188 90.5725 55.5183C90.7222 55.1176 90.9316 54.7701 91.2072 54.4721C91.4831 54.1774 91.8154 53.9457 92.1976 53.7801C92.5797 53.618 93.0083 53.5352 93.477 53.5319C93.7029 53.5286 93.9421 53.5484 94.1915 53.5947C94.4439 53.6412 94.6931 53.7306 94.9491 53.8629C95.2015 53.9953 95.4509 54.1906 95.6901 54.4457L90.9647 57.0676L91.6825 58.4579L98.1424 54.8826Z" fill="#FEFEFE"/>
<path d="M100.234 61.5963H101.989V57.2462H106.535V61.5963H108.289V52.0621H106.535V55.5777H101.989V52.0621H100.234V61.5963Z" fill="#FEFEFE"/>
<path d="M111.777 52.0621H110.022V60.4839C110.019 60.5832 110.026 60.7024 110.042 60.8482C110.055 60.9938 110.095 61.1363 110.158 61.2818C110.221 61.4241 110.324 61.5468 110.468 61.6425C110.61 61.7386 110.806 61.7917 111.059 61.795C111.265 61.7917 111.448 61.7452 111.601 61.656C111.753 61.5666 111.89 61.4475 112.009 61.3017C112.132 61.1528 112.245 60.9904 112.355 60.8151C112.461 60.6396 112.578 60.4608 112.694 60.2852L116.163 55.1806C116.18 55.1506 116.21 55.1011 116.253 55.0315C116.296 54.9621 116.339 54.8892 116.389 54.813C116.436 54.7368 116.476 54.6741 116.502 54.6242C116.512 54.6143 116.519 54.6012 116.522 54.5879C116.525 54.5748 116.532 54.5648 116.542 54.5648C116.552 54.5648 116.559 54.5681 116.559 54.578C116.562 54.5846 116.562 54.5945 116.562 54.6044C116.562 54.621 116.562 54.6542 116.562 54.7037C116.562 54.7502 116.562 54.8262 116.562 54.9222V61.5963H118.317V53.0551C118.32 53.0088 118.313 52.926 118.3 52.8002C118.287 52.6778 118.25 52.5419 118.187 52.3996C118.124 52.254 118.021 52.1314 117.878 52.0255C117.735 51.9228 117.536 51.8667 117.28 51.8634C117.074 51.8667 116.891 51.9129 116.732 52.0023C116.575 52.0917 116.436 52.2109 116.31 52.3567C116.186 52.5056 116.07 52.6679 115.96 52.8432C115.851 53.0187 115.738 53.1975 115.625 53.3729L112.175 58.5375C112.159 58.5606 112.132 58.6068 112.089 58.6764C112.043 58.7461 111.999 58.822 111.95 58.9015C111.903 58.981 111.866 59.044 111.837 59.0935C111.827 59.1034 111.82 59.1167 111.817 59.1299C111.813 59.1434 111.807 59.1533 111.797 59.1533C111.787 59.1533 111.78 59.1499 111.78 59.14C111.777 59.1332 111.777 59.1233 111.777 59.1134C111.777 59.0969 111.777 59.0639 111.777 59.014C111.777 58.9678 111.777 58.8949 111.777 58.7955V52.0621Z" fill="#FEFEFE"/>
<path d="M120.05 61.5963H121.805V57.2462H126.351V61.5963H128.105V52.0621H126.351V55.5777H121.805V52.0621H120.05V61.5963Z" fill="#FEFEFE"/>
<path d="M129.839 61.5963H131.593V56.1736C131.59 55.9981 131.593 55.7928 131.6 55.5644C131.603 55.3361 131.633 55.1044 131.686 54.876C131.74 54.6476 131.836 54.4423 131.972 54.2669C132.118 54.0913 132.285 53.9656 132.464 53.8893C132.644 53.8133 132.833 53.7669 133.029 53.7503C133.229 53.7338 133.428 53.7272 133.627 53.7306H136V52.0621H133.986C133.68 52.0587 133.381 52.0621 133.089 52.0752C132.793 52.0851 132.507 52.1182 132.228 52.1745C131.949 52.2307 131.683 52.3234 131.427 52.456C131.168 52.5884 130.926 52.7738 130.696 53.0155C130.48 53.257 130.311 53.5153 130.191 53.79C130.075 54.0681 129.988 54.3464 129.939 54.6308C129.889 54.9156 129.859 55.1905 129.849 55.4519C129.839 55.7169 129.836 55.9585 129.839 56.1736V61.5963Z" fill="#FEFEFE"/>
<path d="M80.3636 63.7874V64.944C80.3628 65.0391 80.3664 65.136 80.3757 65.2363C80.3853 65.3363 80.4057 65.4328 80.4384 65.5263C80.4708 65.6188 80.5208 65.7023 80.5895 65.7761C80.6575 65.8507 80.7499 65.9087 80.8668 65.9517C80.9168 65.9696 80.9689 65.9826 81.0219 65.9901C81.0748 65.9977 81.1276 66.0012 81.1799 66.0012C81.2231 66.0012 81.2661 65.9997 81.309 65.9967C81.3521 65.9939 81.3952 65.9878 81.4383 65.9788C81.5148 65.9599 81.5797 65.9358 81.6318 65.9057C81.6841 65.8754 81.7263 65.8424 81.7597 65.8078C81.7921 65.773 81.8186 65.74 81.8373 65.7077V65.9562C81.839 66.0111 81.8383 66.0668 81.8352 66.1256C81.8321 66.1836 81.8208 66.2406 81.8004 66.2973C81.78 66.3544 81.7445 66.4072 81.6924 66.4577C81.6448 66.5021 81.588 66.5368 81.5224 66.5601C81.4565 66.5835 81.3893 66.6 81.3197 66.6083C81.2503 66.6165 81.1858 66.621 81.1255 66.6203C81.0075 66.6203 80.8903 66.6052 80.7747 66.5752C80.6598 66.5457 80.545 66.5035 80.4316 66.4485L80.3908 66.8416C80.4656 66.8694 80.5457 66.8952 80.6326 66.9185C80.7196 66.9426 80.8095 66.9622 80.9033 66.9773C80.9962 66.9917 81.0899 66.999 81.1845 66.9999C81.2699 66.9999 81.3568 66.9917 81.4459 66.9749C81.5345 66.9584 81.6197 66.9336 81.7021 66.8997C81.7839 66.8649 81.858 66.822 81.9236 66.7694C81.9932 66.7114 82.049 66.6505 82.0915 66.5863C82.1329 66.5217 82.1647 66.454 82.186 66.3839C82.2063 66.3131 82.2207 66.2406 82.2275 66.1654C82.2342 66.0902 82.2374 66.0125 82.2367 65.9335V63.7874H81.8373V64.8718C81.8383 64.914 81.8367 64.9628 81.8329 65.0185C81.83 65.0735 81.8208 65.1316 81.8056 65.1917C81.7914 65.2514 81.7673 65.3101 81.7339 65.3658C81.7014 65.4222 81.6552 65.4734 81.597 65.5178C81.5518 65.5517 81.5011 65.5775 81.4466 65.5954C81.3914 65.6129 81.3348 65.6218 81.2751 65.6218C81.2252 65.6225 81.1762 65.618 81.1276 65.6081C81.08 65.5985 81.0354 65.5803 80.994 65.5541C80.9334 65.514 80.8865 65.4675 80.8541 65.4146C80.8223 65.3613 80.7995 65.304 80.7861 65.2438C80.7733 65.1827 80.7664 65.1202 80.764 65.057C80.7626 64.9938 80.7619 64.9319 80.7626 64.8718V63.7874H80.3636ZM84.7527 63.7874V64.4381C84.752 64.5014 84.7556 64.569 84.7648 64.6405C84.7738 64.712 84.7934 64.7829 84.8245 64.8529C84.8554 64.9223 84.9031 64.9855 84.968 65.0428C85.0331 65.0999 85.1207 65.1459 85.2318 65.1807C85.3422 65.2144 85.4821 65.2326 85.6505 65.2332H86.0768V65.9562H86.4761V63.7874H86.0768V64.8536H85.7232C85.6098 64.8536 85.5167 64.8461 85.4442 64.8326C85.3718 64.8183 85.3156 64.7986 85.2749 64.7732C85.2349 64.7484 85.2062 64.7189 85.188 64.6849C85.1707 64.6512 85.1601 64.6141 85.1563 64.575C85.1525 64.5351 85.1511 64.4945 85.1517 64.4516V63.7874H84.7527ZM91.1191 64.429C91.0473 64.2739 90.956 64.1458 90.8463 64.0442C90.7366 63.9424 90.6149 63.8664 90.4818 63.8167C90.3489 63.7671 90.2106 63.7424 90.0669 63.7424C89.9058 63.7431 89.7578 63.7716 89.6209 63.8289C89.4841 63.8854 89.3647 63.9643 89.2626 64.0661C89.1606 64.1685 89.0812 64.2874 89.0246 64.4245C88.9671 64.5615 88.9384 64.7106 88.9377 64.8718C88.9384 65.0292 88.9649 65.1722 89.017 65.3026C89.0691 65.4328 89.1419 65.5473 89.2347 65.6459C89.3277 65.7438 89.4357 65.8228 89.5589 65.8839C89.6385 65.9222 89.7206 65.9517 89.8061 65.9713C89.8917 65.9915 89.9785 66.0012 90.0669 66.0012C90.1697 66.0012 90.2703 65.9901 90.3701 65.9658C90.469 65.9427 90.5628 65.9063 90.6521 65.8568C90.6952 65.8334 90.7449 65.7994 90.8025 65.7551C90.859 65.7108 90.9157 65.6534 90.9725 65.585C91.0291 65.5156 91.0776 65.4321 91.1199 65.3342C91.1615 65.237 91.1878 65.1233 91.2008 64.9938L90.797 64.944C90.7933 65.0306 90.7774 65.1106 90.7487 65.1858C90.7201 65.2604 90.6815 65.3266 90.6338 65.3847C90.5862 65.4432 90.5318 65.49 90.4707 65.527C90.4087 65.5624 90.3428 65.5871 90.2725 65.6015C90.2023 65.6157 90.1313 65.6225 90.0579 65.6218C89.9892 65.6218 89.9226 65.6129 89.8568 65.5954C89.791 65.5775 89.7299 65.5517 89.6723 65.5178C89.6112 65.4803 89.5561 65.4305 89.5068 65.3696C89.4577 65.3085 89.4191 65.2363 89.3905 65.1526C89.3609 65.0698 89.3467 64.9756 89.3457 64.8718C89.3457 64.7642 89.3632 64.6646 89.3971 64.5735C89.4312 64.4825 89.4789 64.4035 89.5416 64.3357C89.6043 64.2685 89.6799 64.2159 89.7668 64.1782C89.8537 64.1413 89.9513 64.1225 90.0579 64.1217C90.1093 64.1211 90.1637 64.1255 90.2204 64.1362C90.2779 64.1465 90.3345 64.1671 90.3927 64.197C90.45 64.2272 90.5069 64.2716 90.5614 64.3296L89.4864 64.926L89.6496 65.2422L91.1191 64.429ZM94.2249 64.3612C94.2815 64.3086 94.3411 64.264 94.4047 64.2287C94.469 64.1932 94.5339 64.1661 94.5998 64.1489C94.6654 64.1307 94.7288 64.1217 94.7916 64.1217C94.856 64.1211 94.9195 64.1279 94.9829 64.1407C95.0464 64.1527 95.1061 64.1737 95.1637 64.2032C95.2082 64.2258 95.2527 64.2557 95.2958 64.2935C95.3389 64.3311 95.3783 64.3771 95.4137 64.432C95.4492 64.4863 95.4772 64.5495 95.4985 64.6217C95.5196 64.6941 95.5302 64.7763 95.531 64.8673C95.5302 64.9711 95.5158 65.0607 95.4893 65.1367C95.463 65.2122 95.4304 65.2761 95.3919 65.3274C95.3533 65.3793 95.3155 65.4201 95.2785 65.45C95.2413 65.4803 95.2127 65.5013 95.1909 65.5133C95.1288 65.5496 95.063 65.5765 94.9936 65.5947C94.924 65.6129 94.8536 65.6218 94.7826 65.6218C94.7374 65.6218 94.6919 65.6174 94.6481 65.6091C94.6035 65.5999 94.5605 65.5879 94.5195 65.572C94.4108 65.5284 94.3246 65.4682 94.2625 65.393C94.1997 65.3175 94.1545 65.2332 94.1256 65.1391C94.097 65.0457 94.079 64.9494 94.0714 64.8499C94.0638 64.7512 94.0608 64.6557 94.0614 64.5646V64.1399C94.0622 63.9509 94.0856 63.7964 94.1318 63.6745C94.178 63.5531 94.2398 63.4583 94.3184 63.3899C94.397 63.3205 94.4856 63.271 94.5839 63.2401C94.6822 63.2092 94.784 63.1896 94.8899 63.182C94.9958 63.1745 95.0992 63.1714 95.1999 63.1731H95.7351V62.7934H95.1727C95.1122 62.7928 95.0402 62.7934 94.9581 62.7965C94.8748 62.7986 94.7856 62.8079 94.6911 62.8236C94.596 62.8388 94.4998 62.8649 94.4032 62.9019C94.3063 62.9395 94.2135 62.9923 94.1256 63.0601C94.0373 63.1285 93.958 63.2167 93.8891 63.325C93.8197 63.4336 93.7645 63.5661 93.7244 63.7235C93.6835 63.8816 93.6631 64.0682 93.6624 64.2846V64.5873C93.6617 64.6714 93.6631 64.7619 93.6686 64.8584C93.6738 64.9553 93.6873 65.0539 93.71 65.1549C93.7327 65.2566 93.7704 65.3559 93.8235 65.4538C93.8756 65.5517 93.949 65.6435 94.0435 65.7304C94.0735 65.7582 94.1121 65.7874 94.1576 65.8184C94.2036 65.8493 94.2573 65.8785 94.3184 65.9063C94.3805 65.9342 94.4508 65.9568 94.5294 65.9743C94.6081 65.9915 94.6957 66.0005 94.7916 66.0012C94.9057 66.0012 95.0185 65.9863 95.1289 65.9568C95.2392 65.9268 95.342 65.8816 95.4357 65.8207C95.5302 65.7582 95.6155 65.6782 95.6911 65.5812C95.7669 65.4833 95.8265 65.3725 95.8711 65.2483C95.9156 65.1247 95.9383 64.9914 95.9391 64.8491C95.9383 64.7038 95.9141 64.5667 95.8659 64.4389C95.8173 64.3107 95.7493 64.197 95.6617 64.097C95.5741 63.9967 95.4696 63.9163 95.3495 63.8552C95.2692 63.8146 95.1847 63.786 95.0955 63.7679C95.0064 63.7506 94.9171 63.7414 94.8281 63.7424C94.7605 63.7424 94.6926 63.7497 94.6223 63.7648C94.5522 63.7799 94.4833 63.8019 94.4153 63.8311C94.348 63.8606 94.2846 63.8973 94.2249 63.941V64.3612ZM98.4551 65.9562H98.8541V64.9666H99.8881V65.9562H100.287V63.7874H99.8881V64.5873H98.8541V63.7874H98.4551V65.9562ZM103.212 63.7874H102.812V64.9711C102.812 65.0254 102.814 65.0872 102.819 65.1556C102.825 65.225 102.837 65.2971 102.855 65.3725C102.873 65.448 102.902 65.5209 102.941 65.5933C102.979 65.6654 103.032 65.7318 103.099 65.7926C103.166 65.853 103.25 65.9026 103.352 65.9427C103.411 65.9644 103.472 65.9802 103.533 65.9884C103.594 65.9977 103.656 66.0012 103.719 66.0012C103.804 66.0022 103.886 65.9939 103.968 65.9781C104.05 65.9623 104.127 65.9352 104.2 65.8974C104.273 65.8583 104.337 65.8101 104.392 65.7534C104.448 65.6964 104.493 65.6339 104.531 65.5655C104.569 65.4968 104.597 65.426 104.616 65.3538C104.635 65.2806 104.645 65.2092 104.645 65.1384C104.644 65.0292 104.623 64.9274 104.58 64.834C104.538 64.7399 104.479 64.658 104.403 64.5873C104.327 64.5165 104.238 64.4615 104.136 64.4214C104.033 64.3822 103.922 64.3619 103.801 64.3612C103.732 64.3612 103.661 64.3711 103.586 64.3914C103.512 64.411 103.441 64.4403 103.375 64.4787V64.8944C103.409 64.8583 103.448 64.8289 103.493 64.8062C103.537 64.7838 103.584 64.767 103.633 64.7566C103.683 64.746 103.731 64.7409 103.778 64.7409C103.874 64.7415 103.957 64.7633 104.026 64.8048C104.097 64.847 104.15 64.902 104.188 64.9718C104.226 65.0412 104.245 65.1181 104.246 65.2017C104.246 65.2483 104.237 65.2965 104.22 65.3456C104.202 65.3944 104.174 65.4397 104.136 65.481C104.097 65.5232 104.045 65.5562 103.982 65.582C103.918 65.6081 103.84 65.6211 103.747 65.6218C103.647 65.6211 103.564 65.6081 103.498 65.5826C103.432 65.5579 103.379 65.5246 103.341 65.4824C103.302 65.4411 103.274 65.3951 103.255 65.3446C103.237 65.2943 103.224 65.2438 103.219 65.1934C103.213 65.1429 103.211 65.0954 103.212 65.0525V63.7874ZM104.862 63.7874V65.9562H105.262V63.7874H104.862ZM108.186 63.7874H107.787V65.6669C107.786 65.6919 107.787 65.7228 107.788 65.7596C107.79 65.7957 107.798 65.8328 107.811 65.8695C107.824 65.9063 107.847 65.9373 107.88 65.9623C107.914 65.987 107.96 66.0005 108.022 66.0012C108.069 66.0005 108.111 65.9901 108.146 65.9696C108.18 65.9493 108.211 65.9222 108.239 65.8891C108.267 65.8552 108.292 65.8184 108.317 65.7784C108.341 65.7386 108.368 65.6978 108.394 65.6579L109.183 64.4969C109.187 64.49 109.194 64.4787 109.204 64.4629C109.214 64.4471 109.223 64.4306 109.235 64.4131C109.245 64.3959 109.254 64.3815 109.261 64.3702C109.263 64.3681 109.264 64.365 109.265 64.3619C109.266 64.3589 109.267 64.3567 109.27 64.3567C109.272 64.3567 109.273 64.3575 109.273 64.3598C109.274 64.3612 109.274 64.3636 109.274 64.3657C109.274 64.3695 109.274 64.3771 109.274 64.3884C109.274 64.399 109.274 64.4162 109.274 64.4381V65.9562H109.673V64.0767C109.674 64.0517 109.673 64.0208 109.672 63.984C109.669 63.9478 109.662 63.9108 109.649 63.874C109.635 63.8372 109.613 63.8063 109.58 63.7813C109.546 63.7565 109.499 63.7431 109.438 63.7424C109.391 63.7431 109.349 63.7534 109.313 63.774C109.278 63.7943 109.247 63.8214 109.219 63.8544C109.191 63.8884 109.164 63.9252 109.139 63.9651C109.114 64.005 109.088 64.0458 109.061 64.0857L108.276 65.2604C108.273 65.2656 108.267 65.2761 108.257 65.292C108.246 65.3078 108.236 65.325 108.225 65.3431C108.214 65.3613 108.206 65.3755 108.199 65.3868C108.197 65.3892 108.196 65.3921 108.195 65.3951C108.194 65.3981 108.192 65.4006 108.19 65.4006C108.188 65.4006 108.186 65.3996 108.186 65.3975C108.186 65.3958 108.186 65.3936 108.186 65.3913C108.186 65.3876 108.186 65.38 108.186 65.3689C108.186 65.3583 108.186 65.3417 108.186 65.3191V63.7874ZM109.124 62.8794C109.109 62.947 109.081 63.0028 109.04 63.0473C109 63.0909 108.952 63.124 108.898 63.1452C108.843 63.1669 108.785 63.1776 108.725 63.1776C108.666 63.1776 108.608 63.1669 108.554 63.1452C108.499 63.124 108.451 63.0909 108.411 63.0473C108.37 63.0028 108.342 62.947 108.326 62.8794H108.004C108.029 62.9952 108.074 63.0954 108.139 63.1782C108.204 63.2603 108.286 63.3243 108.385 63.368C108.484 63.4126 108.598 63.4342 108.725 63.435C108.853 63.4342 108.966 63.4126 109.065 63.368C109.164 63.3243 109.247 63.2603 109.312 63.1782C109.377 63.0954 109.422 62.9952 109.447 62.8794H109.124ZM116.185 63.7874V65.0797C116.184 65.1415 116.186 65.2061 116.192 65.2747C116.197 65.3425 116.21 65.4109 116.23 65.4786C116.25 65.5473 116.282 65.6112 116.325 65.6723C116.368 65.7332 116.427 65.7874 116.502 65.8342C116.542 65.8583 116.591 65.8793 116.646 65.8981C116.701 65.9163 116.768 65.9304 116.844 65.9403C116.92 65.9509 117.011 65.9562 117.114 65.9562H118.04V66.521H118.384V65.5765H117.142C117.076 65.5765 117.019 65.5744 116.972 65.5706C116.926 65.5661 116.887 65.56 116.855 65.551C116.822 65.5428 116.793 65.5315 116.77 65.5178C116.708 65.4824 116.663 65.4404 116.637 65.3913C116.611 65.3425 116.595 65.2896 116.59 65.2332C116.585 65.1768 116.583 65.1195 116.584 65.0615V63.7874H116.185ZM118.004 65.414V63.7874H117.604V65.414H118.004ZM122.891 64.429C122.82 64.2739 122.728 64.1458 122.619 64.0442C122.509 63.9424 122.387 63.8664 122.254 63.8167C122.121 63.7671 121.983 63.7424 121.839 63.7424C121.678 63.7431 121.53 63.7716 121.393 63.8289C121.256 63.8854 121.137 63.9643 121.035 64.0661C120.933 64.1685 120.854 64.2874 120.797 64.4245C120.739 64.5615 120.711 64.7106 120.71 64.8718C120.711 65.0292 120.737 65.1722 120.789 65.3026C120.841 65.4328 120.914 65.5473 121.007 65.6459C121.1 65.7438 121.208 65.8228 121.331 65.8839C121.411 65.9222 121.493 65.9517 121.578 65.9713C121.664 65.9915 121.751 66.0012 121.839 66.0012C121.942 66.0012 122.043 65.9901 122.142 65.9658C122.241 65.9427 122.335 65.9063 122.424 65.8568C122.468 65.8334 122.517 65.7994 122.575 65.7551C122.631 65.7108 122.688 65.6534 122.745 65.585C122.801 65.5156 122.85 65.4321 122.892 65.3342C122.934 65.237 122.96 65.1233 122.973 64.9938L122.569 64.944C122.566 65.0306 122.55 65.1106 122.521 65.1858C122.492 65.2604 122.454 65.3266 122.406 65.3847C122.359 65.4432 122.304 65.49 122.243 65.527C122.181 65.5624 122.115 65.5871 122.045 65.6015C121.975 65.6157 121.904 65.6225 121.83 65.6218C121.762 65.6218 121.695 65.6129 121.629 65.5954C121.563 65.5775 121.502 65.5517 121.445 65.5178C121.384 65.4803 121.328 65.4305 121.279 65.3696C121.23 65.3085 121.192 65.2363 121.163 65.1526C121.133 65.0698 121.119 64.9756 121.118 64.8718C121.118 64.7642 121.136 64.6646 121.169 64.5735C121.204 64.4825 121.251 64.4035 121.314 64.3357C121.377 64.2685 121.452 64.2159 121.539 64.1782C121.626 64.1413 121.724 64.1225 121.83 64.1217C121.882 64.1211 121.936 64.1255 121.993 64.1362C122.05 64.1465 122.107 64.1671 122.165 64.197C122.222 64.2272 122.279 64.2716 122.334 64.3296L121.259 64.926L121.422 65.2422L122.891 64.429ZM125.435 65.9562H125.834V64.9666H126.868V65.9562H127.267V63.7874H126.868V64.5873H125.834V63.7874H125.435V65.9562ZM129.602 63.7874V64.1671H130.286V65.9562H130.686V64.1671H131.37V63.7874H129.602ZM134.104 66.9412V65.048C134.105 64.8958 134.12 64.7656 134.15 64.6587C134.181 64.5509 134.222 64.4622 134.273 64.3921C134.325 64.3221 134.382 64.2671 134.447 64.2279C134.512 64.1881 134.578 64.1609 134.647 64.1444C134.716 64.1286 134.783 64.1211 134.848 64.1217C134.951 64.1217 135.047 64.1407 135.137 64.1767C135.226 64.2136 135.305 64.2657 135.373 64.3334C135.441 64.4011 135.494 64.4825 135.533 64.5774C135.571 64.6722 135.591 64.7776 135.592 64.8944C135.591 65.0381 135.558 65.1648 135.495 65.2738C135.431 65.3823 135.342 65.4675 135.227 65.5284C135.113 65.5895 134.979 65.6211 134.825 65.6218C134.765 65.6225 134.704 65.6149 134.643 65.5999C134.583 65.585 134.521 65.5593 134.459 65.5232C134.396 65.4878 134.332 65.4387 134.267 65.3779V65.7936C134.323 65.84 134.383 65.8785 134.45 65.9094C134.517 65.9403 134.586 65.9637 134.659 65.9788C134.731 65.9939 134.803 66.0012 134.875 66.0012C134.989 66.0012 135.101 65.9854 135.21 65.9548C135.319 65.9231 135.421 65.8771 135.516 65.8169C135.611 65.7559 135.694 65.6813 135.767 65.5923C135.84 65.5036 135.896 65.402 135.937 65.2868C135.978 65.1714 135.999 65.0436 136 64.9034C135.999 64.7611 135.979 64.63 135.938 64.5103C135.897 64.3907 135.84 64.2829 135.768 64.1881C135.695 64.0932 135.61 64.0134 135.513 63.9462C135.416 63.8802 135.31 63.8297 135.197 63.795C135.084 63.7603 134.966 63.7424 134.843 63.7424C134.743 63.7414 134.639 63.7534 134.533 63.7778C134.428 63.8019 134.325 63.8424 134.227 63.8988C134.129 63.9561 134.041 64.0328 133.962 64.1307C133.883 64.2279 133.822 64.3492 133.775 64.4952C133.73 64.6405 133.706 64.8144 133.705 65.0164V66.9412H134.104Z" fill="#FEFEFE"/>
<path fill-rule="evenodd" clip-rule="evenodd" d="M54.6671 32.2825C54.6432 32.2589 54.6189 32.2356 54.595 32.2118C54.6193 32.2353 54.6425 32.2592 54.6672 32.2825H54.6671ZM53.9829 31.5722C50.9206 28.2193 49.0536 23.7639 49.0536 18.8749C49.0536 14.7294 50.397 10.8965 52.6719 7.78226C55.3221 8.00624 57.7071 9.65468 57.3691 12.5837C57.2089 13.973 56.1598 13.8109 55.8759 14.3135C52.79 16.9378 48.8578 25.7464 53.9829 31.5722Z" fill="#15647D"/>
<path fill-rule="evenodd" clip-rule="evenodd" d="M67.9998 0.000183105C78.4618 0.000183105 86.9461 8.45236 86.9461 18.8749C86.9461 19.1224 86.9398 19.3683 86.9304 19.6136L79.9962 14.009C80.302 5.44604 77.0327 0.116506 67.9998 0.000183105Z" fill="url(#paint0_linear)"/>
<path fill-rule="evenodd" clip-rule="evenodd" d="M67.9998 0.000183105C77.4855 0.000183105 79.6935 7.34896 77.0632 11.601C74.8684 15.149 67.2153 14.7032 63.6358 13.6887C56.8887 11.7766 48.6811 16.9921 49.755 23.9798C49.2378 22.5403 49.0536 19.5319 49.0536 18.8749C49.0536 8.45236 57.538 0.000183105 67.9998 0.000183105Z" fill="url(#paint1_radial)"/>
<path fill-rule="evenodd" clip-rule="evenodd" d="M67.9999 0.000183105C70.896 0.000183105 75.9671 4.69102 72.2794 8.86541C70.1343 11.2936 65.4384 10.1131 62.4746 9.3677C58.32 8.32288 51.9769 9.16105 50.1154 12.635C52.7024 5.27822 59.733 0.000183105 67.9999 0.000183105Z" fill="url(#paint2_radial)"/>
<path fill-rule="evenodd" clip-rule="evenodd" d="M67.9998 37.7495C78.4618 37.7495 86.9461 29.2973 86.9461 18.8749C86.9461 12.5459 83.8172 6.94389 79.0172 3.51944C82.5223 7.35544 81.7547 11.0397 80.4177 13.3677C77.6801 18.1345 68.8101 19.0799 62.5989 17.3197C58.2892 16.0981 54.6988 18.2527 52.9896 21.5055C51.2804 24.7584 51.4526 29.1098 54.6672 32.2824C58.0909 35.6615 62.8009 37.7495 67.9998 37.7495Z" fill="url(#paint3_radial)"/>
<path fill-rule="evenodd" clip-rule="evenodd" d="M67.9999 37.7495C78.4618 37.7495 86.9461 29.2973 86.9461 18.8749C86.9461 16.0209 86.3097 13.315 85.1709 10.8898C86.3417 13.5719 85.7471 16.0588 84.8177 17.8255C82.1951 22.811 73.1465 24.114 66.7185 22.5455C62.258 21.4571 58.6627 23.7991 57.0359 27.195C55.8465 29.6781 56.3478 34.1648 59.4925 35.7427C62.0506 37.0263 64.9406 37.7495 67.9999 37.7495Z" fill="url(#paint4_radial)"/>
<path fill-rule="evenodd" clip-rule="evenodd" d="M67.9998 37.7495C77.1135 37.7495 84.7253 31.3355 86.5361 22.7925C86.3582 23.3826 86.1127 23.9215 85.84 24.3963C83.4377 28.5792 75.6541 29.4089 70.2037 27.8642C67.3509 27.0558 64.8576 27.9328 63.1613 29.6376C60.7144 32.0967 61.4959 37.7495 67.9998 37.7495Z" fill="url(#paint5_radial)"/>
<defs>
<linearGradient id="paint0_linear" x1="78.1203" y1="2.8361" x2="80.4053" y2="13.4668" gradientUnits="userSpaceOnUse">
<stop stop-color="#EA583A"/>
<stop offset="1" stop-color="#985440"/>
</linearGradient>
<radialGradient id="paint1_radial" cx="0" cy="0" r="1" gradientUnits="userSpaceOnUse" gradientTransform="translate(74.3194 7.91577) rotate(140.355) scale(49.1309 49.7519)">
<stop stop-color="#91D8F7"/>
<stop offset="0.580392" stop-color="#3BB9EB"/>
<stop offset="1" stop-color="#0A83B2"/>
</radialGradient>
<radialGradient id="paint2_radial" cx="0" cy="0" r="1" gradientUnits="userSpaceOnUse" gradientTransform="translate(77.3288 5.68649) rotate(152.819) scale(102.318 108.113)">
<stop stop-color="#C7EAFB"/>
<stop offset="0.580392" stop-color="#91D8F7"/>
<stop offset="1" stop-color="#3BB9EB"/>
</radialGradient>
<radialGradient id="paint3_radial" cx="0" cy="0" r="1" gradientUnits="userSpaceOnUse" gradientTransform="translate(62.7734 29.5358) rotate(-39.8563) scale(42.6372 42.6965)">
<stop stop-color="#FFCC29"/>
<stop offset="0.270588" stop-color="#FCB438"/>
<stop offset="0.690196" stop-color="#F58634"/>
<stop offset="1" stop-color="#F89F3A"/>
</radialGradient>
<radialGradient id="paint4_radial" cx="0" cy="0" r="1" gradientUnits="userSpaceOnUse" gradientTransform="translate(61.6263 29.1575) rotate(-40.885) scale(45.137 45.1974)">
<stop stop-color="#FFDD21"/>
<stop offset="0.270588" stop-color="#FFD532"/>
<stop offset="0.690196" stop-color="#FDB92E"/>
<stop offset="1" stop-color="#FFC636"/>
</radialGradient>
<radialGradient id="paint5_radial" cx="0" cy="0" r="1" gradientUnits="userSpaceOnUse" gradientTransform="translate(63.1127 32.368) rotate(-45.7404) scale(79.0197 78.998)">
<stop stop-color="#FFF8AF"/>
<stop offset="0.270588" stop-color="#FFE970"/>
<stop offset="0.690196" stop-color="#FFD657"/>
<stop offset="1" stop-color="#FFE29E"/>
</radialGradient>
</defs>
</svg>
